<mxfile host="app.diagrams.net" modified="2023-10-12T19:48:27.442Z" agent="Mozilla/5.0 (Windows NT 10.0; Win64; x64) AppleWebKit/537.36 (KHTML, like Gecko) Chrome/117.0.0.0 Safari/537.36 Edg/117.0.2045.47" etag="QRZNqz_tb9oKZjbN7MpA" version="22.0.4" type="device">
  <diagram name="Page-1" id="Po5Km8ZeCA5UCwh9uSR4">
    <mxGraphModel dx="2510" dy="968" grid="1" gridSize="10" guides="1" tooltips="1" connect="1" arrows="1" fold="1" page="1" pageScale="1" pageWidth="850" pageHeight="1100" math="0" shadow="0">
      <root>
        <mxCell id="0" />
        <mxCell id="1" parent="0" />
        <mxCell id="7gqt0PY7z3TmWNlQmAuE-3" value="" style="rounded=0;whiteSpace=wrap;html=1;" parent="1" vertex="1">
          <mxGeometry x="280" y="130" width="220" height="1320" as="geometry" />
        </mxCell>
        <mxCell id="yYHlUG-1NSa63bpo5UA5-2" style="edgeStyle=orthogonalEdgeStyle;rounded=0;orthogonalLoop=1;jettySize=auto;html=1;exitX=0.5;exitY=0.5;exitDx=0;exitDy=0;exitPerimeter=0;entryX=0;entryY=0.5;entryDx=0;entryDy=0;" parent="1" source="7gqt0PY7z3TmWNlQmAuE-1" target="7gqt0PY7z3TmWNlQmAuE-8" edge="1">
          <mxGeometry relative="1" as="geometry" />
        </mxCell>
        <mxCell id="yYHlUG-1NSa63bpo5UA5-9" style="edgeStyle=orthogonalEdgeStyle;rounded=0;orthogonalLoop=1;jettySize=auto;html=1;exitX=0.5;exitY=0.5;exitDx=0;exitDy=0;exitPerimeter=0;entryX=0;entryY=0.5;entryDx=0;entryDy=0;" parent="1" source="7gqt0PY7z3TmWNlQmAuE-1" target="7gqt0PY7z3TmWNlQmAuE-9" edge="1">
          <mxGeometry relative="1" as="geometry" />
        </mxCell>
        <mxCell id="yYHlUG-1NSa63bpo5UA5-10" style="edgeStyle=orthogonalEdgeStyle;rounded=0;orthogonalLoop=1;jettySize=auto;html=1;exitX=0.5;exitY=0.5;exitDx=0;exitDy=0;exitPerimeter=0;entryX=0;entryY=0.5;entryDx=0;entryDy=0;" parent="1" source="7gqt0PY7z3TmWNlQmAuE-1" target="7gqt0PY7z3TmWNlQmAuE-10" edge="1">
          <mxGeometry relative="1" as="geometry" />
        </mxCell>
        <mxCell id="yYHlUG-1NSa63bpo5UA5-11" style="edgeStyle=orthogonalEdgeStyle;rounded=0;orthogonalLoop=1;jettySize=auto;html=1;exitX=0.5;exitY=0.5;exitDx=0;exitDy=0;exitPerimeter=0;entryX=0;entryY=0.5;entryDx=0;entryDy=0;" parent="1" source="7gqt0PY7z3TmWNlQmAuE-1" target="7gqt0PY7z3TmWNlQmAuE-11" edge="1">
          <mxGeometry relative="1" as="geometry" />
        </mxCell>
        <mxCell id="yYHlUG-1NSa63bpo5UA5-30" style="edgeStyle=orthogonalEdgeStyle;rounded=0;orthogonalLoop=1;jettySize=auto;html=1;exitX=0.5;exitY=0.5;exitDx=0;exitDy=0;exitPerimeter=0;entryX=0;entryY=0.5;entryDx=0;entryDy=0;" parent="1" source="7gqt0PY7z3TmWNlQmAuE-1" target="yYHlUG-1NSa63bpo5UA5-14" edge="1">
          <mxGeometry relative="1" as="geometry" />
        </mxCell>
        <mxCell id="yYHlUG-1NSa63bpo5UA5-31" style="edgeStyle=orthogonalEdgeStyle;rounded=0;orthogonalLoop=1;jettySize=auto;html=1;exitX=0.5;exitY=0.5;exitDx=0;exitDy=0;exitPerimeter=0;entryX=0;entryY=0.5;entryDx=0;entryDy=0;" parent="1" source="7gqt0PY7z3TmWNlQmAuE-1" target="yYHlUG-1NSa63bpo5UA5-17" edge="1">
          <mxGeometry relative="1" as="geometry" />
        </mxCell>
        <mxCell id="yYHlUG-1NSa63bpo5UA5-32" style="edgeStyle=orthogonalEdgeStyle;rounded=0;orthogonalLoop=1;jettySize=auto;html=1;exitX=0.5;exitY=0.5;exitDx=0;exitDy=0;exitPerimeter=0;entryX=0;entryY=0.5;entryDx=0;entryDy=0;" parent="1" source="7gqt0PY7z3TmWNlQmAuE-1" target="yYHlUG-1NSa63bpo5UA5-23" edge="1">
          <mxGeometry relative="1" as="geometry" />
        </mxCell>
        <mxCell id="yYHlUG-1NSa63bpo5UA5-34" style="edgeStyle=orthogonalEdgeStyle;rounded=0;orthogonalLoop=1;jettySize=auto;html=1;exitX=0.5;exitY=0.5;exitDx=0;exitDy=0;exitPerimeter=0;entryX=0;entryY=0.5;entryDx=0;entryDy=0;" parent="1" source="7gqt0PY7z3TmWNlQmAuE-1" target="yYHlUG-1NSa63bpo5UA5-16" edge="1">
          <mxGeometry relative="1" as="geometry" />
        </mxCell>
        <mxCell id="yYHlUG-1NSa63bpo5UA5-35" style="edgeStyle=orthogonalEdgeStyle;rounded=0;orthogonalLoop=1;jettySize=auto;html=1;exitX=0.5;exitY=0.5;exitDx=0;exitDy=0;exitPerimeter=0;entryX=0;entryY=0.5;entryDx=0;entryDy=0;" parent="1" source="7gqt0PY7z3TmWNlQmAuE-1" target="yYHlUG-1NSa63bpo5UA5-18" edge="1">
          <mxGeometry relative="1" as="geometry" />
        </mxCell>
        <mxCell id="yYHlUG-1NSa63bpo5UA5-36" style="edgeStyle=orthogonalEdgeStyle;rounded=0;orthogonalLoop=1;jettySize=auto;html=1;exitX=0.5;exitY=0.5;exitDx=0;exitDy=0;exitPerimeter=0;entryX=0;entryY=0.5;entryDx=0;entryDy=0;" parent="1" source="7gqt0PY7z3TmWNlQmAuE-1" target="yYHlUG-1NSa63bpo5UA5-19" edge="1">
          <mxGeometry relative="1" as="geometry" />
        </mxCell>
        <mxCell id="yYHlUG-1NSa63bpo5UA5-37" style="edgeStyle=orthogonalEdgeStyle;rounded=0;orthogonalLoop=1;jettySize=auto;html=1;exitX=0.5;exitY=0.5;exitDx=0;exitDy=0;exitPerimeter=0;entryX=0;entryY=0.5;entryDx=0;entryDy=0;" parent="1" source="7gqt0PY7z3TmWNlQmAuE-1" target="yYHlUG-1NSa63bpo5UA5-21" edge="1">
          <mxGeometry relative="1" as="geometry" />
        </mxCell>
        <mxCell id="yYHlUG-1NSa63bpo5UA5-38" style="edgeStyle=orthogonalEdgeStyle;rounded=0;orthogonalLoop=1;jettySize=auto;html=1;exitX=0.5;exitY=0.5;exitDx=0;exitDy=0;exitPerimeter=0;entryX=0;entryY=0.5;entryDx=0;entryDy=0;" parent="1" source="7gqt0PY7z3TmWNlQmAuE-1" target="yYHlUG-1NSa63bpo5UA5-24" edge="1">
          <mxGeometry relative="1" as="geometry" />
        </mxCell>
        <mxCell id="yYHlUG-1NSa63bpo5UA5-39" style="edgeStyle=orthogonalEdgeStyle;rounded=0;orthogonalLoop=1;jettySize=auto;html=1;exitX=0.5;exitY=0.5;exitDx=0;exitDy=0;exitPerimeter=0;entryX=0;entryY=0.5;entryDx=0;entryDy=0;" parent="1" source="7gqt0PY7z3TmWNlQmAuE-1" target="yYHlUG-1NSa63bpo5UA5-25" edge="1">
          <mxGeometry relative="1" as="geometry" />
        </mxCell>
        <mxCell id="yYHlUG-1NSa63bpo5UA5-40" style="edgeStyle=orthogonalEdgeStyle;rounded=0;orthogonalLoop=1;jettySize=auto;html=1;exitX=0.5;exitY=0.5;exitDx=0;exitDy=0;exitPerimeter=0;entryX=0;entryY=0.5;entryDx=0;entryDy=0;" parent="1" source="7gqt0PY7z3TmWNlQmAuE-1" target="yYHlUG-1NSa63bpo5UA5-26" edge="1">
          <mxGeometry relative="1" as="geometry" />
        </mxCell>
        <mxCell id="yYHlUG-1NSa63bpo5UA5-41" style="edgeStyle=orthogonalEdgeStyle;rounded=0;orthogonalLoop=1;jettySize=auto;html=1;exitX=0.5;exitY=0.5;exitDx=0;exitDy=0;exitPerimeter=0;entryX=0;entryY=0.5;entryDx=0;entryDy=0;" parent="1" source="7gqt0PY7z3TmWNlQmAuE-1" target="yYHlUG-1NSa63bpo5UA5-27" edge="1">
          <mxGeometry relative="1" as="geometry" />
        </mxCell>
        <mxCell id="yYHlUG-1NSa63bpo5UA5-42" style="edgeStyle=orthogonalEdgeStyle;rounded=0;orthogonalLoop=1;jettySize=auto;html=1;exitX=0.5;exitY=0.5;exitDx=0;exitDy=0;exitPerimeter=0;entryX=0;entryY=0.5;entryDx=0;entryDy=0;" parent="1" source="7gqt0PY7z3TmWNlQmAuE-1" target="yYHlUG-1NSa63bpo5UA5-28" edge="1">
          <mxGeometry relative="1" as="geometry" />
        </mxCell>
        <mxCell id="yYHlUG-1NSa63bpo5UA5-44" style="edgeStyle=orthogonalEdgeStyle;rounded=0;orthogonalLoop=1;jettySize=auto;html=1;exitX=0.5;exitY=0.5;exitDx=0;exitDy=0;exitPerimeter=0;entryX=0;entryY=0.5;entryDx=0;entryDy=0;" parent="1" source="7gqt0PY7z3TmWNlQmAuE-1" target="7gqt0PY7z3TmWNlQmAuE-12" edge="1">
          <mxGeometry relative="1" as="geometry" />
        </mxCell>
        <mxCell id="yYHlUG-1NSa63bpo5UA5-45" style="edgeStyle=orthogonalEdgeStyle;rounded=0;orthogonalLoop=1;jettySize=auto;html=1;exitX=0.5;exitY=0.5;exitDx=0;exitDy=0;exitPerimeter=0;entryX=0;entryY=0.5;entryDx=0;entryDy=0;" parent="1" source="7gqt0PY7z3TmWNlQmAuE-1" target="7gqt0PY7z3TmWNlQmAuE-7" edge="1">
          <mxGeometry relative="1" as="geometry" />
        </mxCell>
        <mxCell id="xr-b1YEZQtmxwVTNyatM-19" style="edgeStyle=orthogonalEdgeStyle;rounded=0;orthogonalLoop=1;jettySize=auto;html=1;exitX=0.5;exitY=0.5;exitDx=0;exitDy=0;exitPerimeter=0;entryX=0;entryY=0.5;entryDx=0;entryDy=0;" edge="1" parent="1" source="7gqt0PY7z3TmWNlQmAuE-1" target="7gqt0PY7z3TmWNlQmAuE-5">
          <mxGeometry relative="1" as="geometry" />
        </mxCell>
        <mxCell id="7gqt0PY7z3TmWNlQmAuE-1" value="User" style="shape=umlActor;verticalLabelPosition=bottom;verticalAlign=top;html=1;outlineConnect=0;sketch=1;curveFitting=1;jiggle=2;fillColor=#F8CECC;strokeColor=#b85450;" parent="1" vertex="1">
          <mxGeometry x="-50" y="750" width="80" height="200" as="geometry" />
        </mxCell>
        <mxCell id="7gqt0PY7z3TmWNlQmAuE-4" value="Islamic App" style="text;html=1;strokeColor=#2D7600;fillColor=#60a917;align=center;verticalAlign=middle;whiteSpace=wrap;rounded=0;fontColor=#ffffff;" parent="1" vertex="1">
          <mxGeometry x="342.5" y="130" width="90" height="30" as="geometry" />
        </mxCell>
        <mxCell id="7gqt0PY7z3TmWNlQmAuE-5" value="&lt;font style=&quot;font-size: 10px;&quot;&gt;Read Quran Page&lt;/font&gt;" style="ellipse;whiteSpace=wrap;html=1;" parent="1" vertex="1">
          <mxGeometry x="346.25" y="170" width="90" height="50" as="geometry" />
        </mxCell>
        <mxCell id="7gqt0PY7z3TmWNlQmAuE-7" value="Search in quran" style="ellipse;whiteSpace=wrap;html=1;" parent="1" vertex="1">
          <mxGeometry x="342.5" y="230" width="90" height="50" as="geometry" />
        </mxCell>
        <mxCell id="7gqt0PY7z3TmWNlQmAuE-8" value="Start/Resume Quran Khatma" style="ellipse;whiteSpace=wrap;html=1;" parent="1" vertex="1">
          <mxGeometry x="338.75" y="290" width="90" height="50" as="geometry" />
        </mxCell>
        <mxCell id="7gqt0PY7z3TmWNlQmAuE-9" value="Get Aya tafseer &amp;amp; I3rab" style="ellipse;whiteSpace=wrap;html=1;" parent="1" vertex="1">
          <mxGeometry x="338.75" y="410" width="90" height="50" as="geometry" />
        </mxCell>
        <mxCell id="7gqt0PY7z3TmWNlQmAuE-10" value="Get Zekr by type" style="ellipse;whiteSpace=wrap;html=1;" parent="1" vertex="1">
          <mxGeometry x="332.5" y="480" width="100" height="50" as="geometry" />
        </mxCell>
        <mxCell id="7gqt0PY7z3TmWNlQmAuE-11" value="Search Zekr By Name" style="ellipse;whiteSpace=wrap;html=1;" parent="1" vertex="1">
          <mxGeometry x="335" y="539" width="100" height="50" as="geometry" />
        </mxCell>
        <mxCell id="7gqt0PY7z3TmWNlQmAuE-12" value="Resume quran Reading" style="ellipse;whiteSpace=wrap;html=1;" parent="1" vertex="1">
          <mxGeometry x="338.75" y="350" width="90" height="45" as="geometry" />
        </mxCell>
        <mxCell id="7gqt0PY7z3TmWNlQmAuE-13" value="QuranAya" style="swimlane;fontStyle=0;childLayout=stackLayout;horizontal=1;startSize=30;horizontalStack=0;resizeParent=1;resizeParentMax=0;resizeLast=0;collapsible=1;marginBottom=0;whiteSpace=wrap;html=1;fillColor=#f8cecc;strokeColor=#b85450;" parent="1" vertex="1">
          <mxGeometry x="620" y="360" width="140" height="85" as="geometry" />
        </mxCell>
        <mxCell id="7gqt0PY7z3TmWNlQmAuE-14" value="Id" style="text;strokeColor=none;fillColor=none;align=left;verticalAlign=middle;spacingLeft=4;spacingRight=4;overflow=hidden;points=[[0,0.5],[1,0.5]];portConstraint=eastwest;rotatable=0;whiteSpace=wrap;html=1;" parent="7gqt0PY7z3TmWNlQmAuE-13" vertex="1">
          <mxGeometry y="30" width="140" height="25" as="geometry" />
        </mxCell>
        <mxCell id="7gqt0PY7z3TmWNlQmAuE-16" value="Sura Number" style="text;strokeColor=none;fillColor=none;align=left;verticalAlign=middle;spacingLeft=4;spacingRight=4;overflow=hidden;points=[[0,0.5],[1,0.5]];portConstraint=eastwest;rotatable=0;whiteSpace=wrap;html=1;" parent="7gqt0PY7z3TmWNlQmAuE-13" vertex="1">
          <mxGeometry y="55" width="140" height="30" as="geometry" />
        </mxCell>
        <mxCell id="yYHlUG-1NSa63bpo5UA5-13" value="get Doaa By Name" style="ellipse;whiteSpace=wrap;html=1;" parent="1" vertex="1">
          <mxGeometry x="331.25" y="650" width="105" height="50" as="geometry" />
        </mxCell>
        <mxCell id="yYHlUG-1NSa63bpo5UA5-14" value="get Name Of All Do3aa" style="ellipse;whiteSpace=wrap;html=1;" parent="1" vertex="1">
          <mxGeometry x="330" y="590" width="105" height="50" as="geometry" />
        </mxCell>
        <mxCell id="yYHlUG-1NSa63bpo5UA5-16" value="remind With Missing Pary" style="ellipse;whiteSpace=wrap;html=1;" parent="1" vertex="1">
          <mxGeometry x="331.25" y="840" width="105" height="50" as="geometry" />
        </mxCell>
        <mxCell id="yYHlUG-1NSa63bpo5UA5-17" value="get Assma Allah &lt;br&gt;Al Hosna" style="ellipse;whiteSpace=wrap;html=1;" parent="1" vertex="1">
          <mxGeometry x="330" y="710" width="105" height="50" as="geometry" />
        </mxCell>
        <mxCell id="yYHlUG-1NSa63bpo5UA5-18" value="determine missing Pary By Age" style="ellipse;whiteSpace=wrap;html=1;" parent="1" vertex="1">
          <mxGeometry x="331.25" y="900" width="105" height="50" as="geometry" />
        </mxCell>
        <mxCell id="yYHlUG-1NSa63bpo5UA5-19" value="&lt;span style=&quot;color: rgb(0, 0, 0); font-family: Helvetica; font-size: 12px; font-style: normal; font-variant-ligatures: normal; font-variant-caps: normal; font-weight: 400; letter-spacing: normal; orphans: 2; text-align: center; text-indent: 0px; text-transform: none; widows: 2; word-spacing: 0px; -webkit-text-stroke-width: 0px; background-color: rgb(251, 251, 251); text-decoration-thickness: initial; text-decoration-style: initial; text-decoration-color: initial; float: none; display: inline !important;&quot;&gt;determine missing&lt;br&gt;&amp;nbsp;Pary By Enter Number Of Each Missing Pary&lt;/span&gt;" style="ellipse;whiteSpace=wrap;html=1;" parent="1" vertex="1">
          <mxGeometry x="318.75" y="960" width="130" height="80" as="geometry" />
        </mxCell>
        <mxCell id="yYHlUG-1NSa63bpo5UA5-21" value="get All Near Masjids" style="ellipse;whiteSpace=wrap;html=1;" parent="1" vertex="1">
          <mxGeometry x="337.5" y="1060" width="105" height="50" as="geometry" />
        </mxCell>
        <mxCell id="yYHlUG-1NSa63bpo5UA5-23" value="get Meaning Of &lt;br&gt;Selected Name &lt;br&gt;Of Assma Allah&lt;br style=&quot;border-color: var(--border-color);&quot;&gt;Al Hosna&amp;nbsp;&amp;nbsp;" style="ellipse;whiteSpace=wrap;html=1;" parent="1" vertex="1">
          <mxGeometry x="305" y="770" width="160" height="70" as="geometry" />
        </mxCell>
        <mxCell id="yYHlUG-1NSa63bpo5UA5-24" value="get&amp;nbsp;Qibla&amp;nbsp; Direction" style="ellipse;whiteSpace=wrap;html=1;" parent="1" vertex="1">
          <mxGeometry x="331.25" y="1120" width="105" height="50" as="geometry" />
        </mxCell>
        <mxCell id="yYHlUG-1NSa63bpo5UA5-25" value="get Hadith&amp;nbsp;" style="ellipse;whiteSpace=wrap;html=1;" parent="1" vertex="1">
          <mxGeometry x="331.25" y="1180" width="105" height="50" as="geometry" />
        </mxCell>
        <mxCell id="yYHlUG-1NSa63bpo5UA5-26" value="get&amp;nbsp;Hijri calendar&amp;nbsp;" style="ellipse;whiteSpace=wrap;html=1;" parent="1" vertex="1">
          <mxGeometry x="331.25" y="1240" width="105" height="50" as="geometry" />
        </mxCell>
        <mxCell id="yYHlUG-1NSa63bpo5UA5-27" value="get&amp;nbsp;Dream Interpretation" style="ellipse;whiteSpace=wrap;html=1;" parent="1" vertex="1">
          <mxGeometry x="331.25" y="1300" width="105" height="50" as="geometry" />
        </mxCell>
        <mxCell id="yYHlUG-1NSa63bpo5UA5-28" value="get&amp;nbsp;&amp;nbsp;Prayer Time" style="ellipse;whiteSpace=wrap;html=1;" parent="1" vertex="1">
          <mxGeometry x="331.25" y="1360" width="105" height="50" as="geometry" />
        </mxCell>
        <mxCell id="yYHlUG-1NSa63bpo5UA5-46" value="Azkar" style="swimlane;whiteSpace=wrap;html=1;rounded=1;shadow=0;glass=0;swimlaneLine=1;fillColor=#f8cecc;strokeColor=#b85450;" parent="1" vertex="1">
          <mxGeometry x="625" y="170" width="150" height="130" as="geometry">
            <mxRectangle x="660" y="-130" width="70" height="30" as="alternateBounds" />
          </mxGeometry>
        </mxCell>
        <mxCell id="yYHlUG-1NSa63bpo5UA5-50" value="Id" style="text;strokeColor=none;fillColor=none;align=left;verticalAlign=middle;spacingLeft=4;spacingRight=4;overflow=hidden;points=[[0,0.5],[1,0.5]];portConstraint=eastwest;rotatable=0;whiteSpace=wrap;html=1;" parent="yYHlUG-1NSa63bpo5UA5-46" vertex="1">
          <mxGeometry x="5" y="30" width="140" height="25" as="geometry" />
        </mxCell>
        <mxCell id="7gqt0PY7z3TmWNlQmAuE-15" value="Name" style="text;strokeColor=none;fillColor=none;align=left;verticalAlign=middle;spacingLeft=4;spacingRight=4;overflow=hidden;points=[[0,0.5],[1,0.5]];portConstraint=eastwest;rotatable=0;whiteSpace=wrap;html=1;" parent="yYHlUG-1NSa63bpo5UA5-46" vertex="1">
          <mxGeometry x="5" y="55" width="140" height="35" as="geometry" />
        </mxCell>
        <mxCell id="yYHlUG-1NSa63bpo5UA5-51" value="Content" style="text;strokeColor=none;fillColor=none;align=left;verticalAlign=middle;spacingLeft=4;spacingRight=4;overflow=hidden;points=[[0,0.5],[1,0.5]];portConstraint=eastwest;rotatable=0;whiteSpace=wrap;html=1;" parent="yYHlUG-1NSa63bpo5UA5-46" vertex="1">
          <mxGeometry y="100" width="140" height="30" as="geometry" />
        </mxCell>
        <mxCell id="yYHlUG-1NSa63bpo5UA5-53" value="Assma Alah Alhosna" style="swimlane;fontStyle=0;childLayout=stackLayout;horizontal=1;startSize=30;horizontalStack=0;resizeParent=1;resizeParentMax=0;resizeLast=0;collapsible=1;marginBottom=0;whiteSpace=wrap;html=1;swimlaneFillColor=none;fillColor=#f8cecc;strokeColor=#b85450;" parent="1" vertex="1">
          <mxGeometry x="620" y="490" width="140" height="120" as="geometry" />
        </mxCell>
        <mxCell id="yYHlUG-1NSa63bpo5UA5-54" value="id" style="text;strokeColor=none;fillColor=none;align=left;verticalAlign=middle;spacingLeft=4;spacingRight=4;overflow=hidden;points=[[0,0.5],[1,0.5]];portConstraint=eastwest;rotatable=0;whiteSpace=wrap;html=1;" parent="yYHlUG-1NSa63bpo5UA5-53" vertex="1">
          <mxGeometry y="30" width="140" height="30" as="geometry" />
        </mxCell>
        <mxCell id="yYHlUG-1NSa63bpo5UA5-55" value="Name" style="text;strokeColor=none;fillColor=none;align=left;verticalAlign=middle;spacingLeft=4;spacingRight=4;overflow=hidden;points=[[0,0.5],[1,0.5]];portConstraint=eastwest;rotatable=0;whiteSpace=wrap;html=1;" parent="yYHlUG-1NSa63bpo5UA5-53" vertex="1">
          <mxGeometry y="60" width="140" height="30" as="geometry" />
        </mxCell>
        <mxCell id="yYHlUG-1NSa63bpo5UA5-56" value="Meaning" style="text;strokeColor=none;fillColor=none;align=left;verticalAlign=middle;spacingLeft=4;spacingRight=4;overflow=hidden;points=[[0,0.5],[1,0.5]];portConstraint=eastwest;rotatable=0;whiteSpace=wrap;html=1;" parent="yYHlUG-1NSa63bpo5UA5-53" vertex="1">
          <mxGeometry y="90" width="140" height="30" as="geometry" />
        </mxCell>
        <mxCell id="yYHlUG-1NSa63bpo5UA5-69" value="Tafseer Aya" style="swimlane;whiteSpace=wrap;html=1;fillColor=#f8cecc;strokeColor=#b85450;" parent="1" vertex="1">
          <mxGeometry x="620" y="640" width="140" height="170" as="geometry" />
        </mxCell>
        <mxCell id="yYHlUG-1NSa63bpo5UA5-70" value="aya" style="text;strokeColor=none;fillColor=none;align=left;verticalAlign=middle;spacingLeft=4;spacingRight=4;overflow=hidden;points=[[0,0.5],[1,0.5]];portConstraint=eastwest;rotatable=0;whiteSpace=wrap;html=1;" parent="yYHlUG-1NSa63bpo5UA5-69" vertex="1">
          <mxGeometry x="5" y="30" width="130" height="30" as="geometry" />
        </mxCell>
        <mxCell id="xr-b1YEZQtmxwVTNyatM-1" value="Tafseer" style="text;strokeColor=none;fillColor=none;align=left;verticalAlign=middle;spacingLeft=4;spacingRight=4;overflow=hidden;points=[[0,0.5],[1,0.5]];portConstraint=eastwest;rotatable=0;whiteSpace=wrap;html=1;" vertex="1" parent="yYHlUG-1NSa63bpo5UA5-69">
          <mxGeometry y="65" width="140" height="30" as="geometry" />
        </mxCell>
        <mxCell id="xr-b1YEZQtmxwVTNyatM-2" value="I3rab" style="text;strokeColor=none;fillColor=none;align=left;verticalAlign=middle;spacingLeft=4;spacingRight=4;overflow=hidden;points=[[0,0.5],[1,0.5]];portConstraint=eastwest;rotatable=0;whiteSpace=wrap;html=1;" vertex="1" parent="yYHlUG-1NSa63bpo5UA5-69">
          <mxGeometry y="95" width="140" height="30" as="geometry" />
        </mxCell>
        <mxCell id="xr-b1YEZQtmxwVTNyatM-7" value="id" style="text;strokeColor=none;fillColor=none;align=left;verticalAlign=middle;spacingLeft=4;spacingRight=4;overflow=hidden;points=[[0,0.5],[1,0.5]];portConstraint=eastwest;rotatable=0;whiteSpace=wrap;html=1;" vertex="1" parent="yYHlUG-1NSa63bpo5UA5-69">
          <mxGeometry y="125" width="140" height="30" as="geometry" />
        </mxCell>
        <mxCell id="xr-b1YEZQtmxwVTNyatM-3" value="Prayer Time" style="swimlane;whiteSpace=wrap;html=1;startSize=23;fillColor=#f8cecc;strokeColor=#b85450;" vertex="1" parent="1">
          <mxGeometry x="630" y="830" width="140" height="150" as="geometry" />
        </mxCell>
        <mxCell id="xr-b1YEZQtmxwVTNyatM-4" value="id" style="text;strokeColor=none;fillColor=none;align=left;verticalAlign=middle;spacingLeft=4;spacingRight=4;overflow=hidden;points=[[0,0.5],[1,0.5]];portConstraint=eastwest;rotatable=0;whiteSpace=wrap;html=1;" vertex="1" parent="xr-b1YEZQtmxwVTNyatM-3">
          <mxGeometry x="5" y="30" width="130" height="30" as="geometry" />
        </mxCell>
        <mxCell id="xr-b1YEZQtmxwVTNyatM-5" value="Name" style="text;strokeColor=none;fillColor=none;align=left;verticalAlign=middle;spacingLeft=4;spacingRight=4;overflow=hidden;points=[[0,0.5],[1,0.5]];portConstraint=eastwest;rotatable=0;whiteSpace=wrap;html=1;" vertex="1" parent="xr-b1YEZQtmxwVTNyatM-3">
          <mxGeometry y="65" width="140" height="30" as="geometry" />
        </mxCell>
        <mxCell id="xr-b1YEZQtmxwVTNyatM-6" value="Time" style="text;strokeColor=none;fillColor=none;align=left;verticalAlign=middle;spacingLeft=4;spacingRight=4;overflow=hidden;points=[[0,0.5],[1,0.5]];portConstraint=eastwest;rotatable=0;whiteSpace=wrap;html=1;" vertex="1" parent="xr-b1YEZQtmxwVTNyatM-3">
          <mxGeometry y="95" width="140" height="30" as="geometry" />
        </mxCell>
        <mxCell id="xr-b1YEZQtmxwVTNyatM-8" value="Hadith" style="swimlane;whiteSpace=wrap;html=1;startSize=20;fillColor=#f8cecc;strokeColor=#b85450;" vertex="1" parent="1">
          <mxGeometry x="640" y="1080" width="140" height="170" as="geometry" />
        </mxCell>
        <mxCell id="xr-b1YEZQtmxwVTNyatM-9" value="id" style="text;strokeColor=none;fillColor=none;align=left;verticalAlign=middle;spacingLeft=4;spacingRight=4;overflow=hidden;points=[[0,0.5],[1,0.5]];portConstraint=eastwest;rotatable=0;whiteSpace=wrap;html=1;" vertex="1" parent="xr-b1YEZQtmxwVTNyatM-8">
          <mxGeometry x="5" y="30" width="130" height="30" as="geometry" />
        </mxCell>
        <mxCell id="xr-b1YEZQtmxwVTNyatM-10" value="Name" style="text;strokeColor=none;fillColor=none;align=left;verticalAlign=middle;spacingLeft=4;spacingRight=4;overflow=hidden;points=[[0,0.5],[1,0.5]];portConstraint=eastwest;rotatable=0;whiteSpace=wrap;html=1;" vertex="1" parent="xr-b1YEZQtmxwVTNyatM-8">
          <mxGeometry y="65" width="140" height="30" as="geometry" />
        </mxCell>
        <mxCell id="xr-b1YEZQtmxwVTNyatM-11" value="ContentOfHadeth" style="text;strokeColor=none;fillColor=none;align=left;verticalAlign=middle;spacingLeft=4;spacingRight=4;overflow=hidden;points=[[0,0.5],[1,0.5]];portConstraint=eastwest;rotatable=0;whiteSpace=wrap;html=1;" vertex="1" parent="xr-b1YEZQtmxwVTNyatM-8">
          <mxGeometry y="95" width="140" height="30" as="geometry" />
        </mxCell>
        <mxCell id="xr-b1YEZQtmxwVTNyatM-12" value="Hadith narrator" style="text;strokeColor=none;fillColor=none;align=left;verticalAlign=middle;spacingLeft=4;spacingRight=4;overflow=hidden;points=[[0,0.5],[1,0.5]];portConstraint=eastwest;rotatable=0;whiteSpace=wrap;html=1;" vertex="1" parent="xr-b1YEZQtmxwVTNyatM-8">
          <mxGeometry y="125" width="140" height="30" as="geometry" />
        </mxCell>
        <mxCell id="xr-b1YEZQtmxwVTNyatM-14" value="Do3aa" style="swimlane;whiteSpace=wrap;html=1;startSize=20;fillColor=#f8cecc;strokeColor=#b85450;" vertex="1" parent="1">
          <mxGeometry x="650" y="1325" width="140" height="120" as="geometry" />
        </mxCell>
        <mxCell id="xr-b1YEZQtmxwVTNyatM-15" value="id" style="text;strokeColor=none;fillColor=none;align=left;verticalAlign=middle;spacingLeft=4;spacingRight=4;overflow=hidden;points=[[0,0.5],[1,0.5]];portConstraint=eastwest;rotatable=0;whiteSpace=wrap;html=1;" vertex="1" parent="xr-b1YEZQtmxwVTNyatM-14">
          <mxGeometry x="5" y="30" width="130" height="30" as="geometry" />
        </mxCell>
        <mxCell id="xr-b1YEZQtmxwVTNyatM-16" value="Name" style="text;strokeColor=none;fillColor=none;align=left;verticalAlign=middle;spacingLeft=4;spacingRight=4;overflow=hidden;points=[[0,0.5],[1,0.5]];portConstraint=eastwest;rotatable=0;whiteSpace=wrap;html=1;" vertex="1" parent="xr-b1YEZQtmxwVTNyatM-14">
          <mxGeometry y="65" width="140" height="30" as="geometry" />
        </mxCell>
        <mxCell id="xr-b1YEZQtmxwVTNyatM-17" value="Content of do3aa" style="text;strokeColor=none;fillColor=none;align=left;verticalAlign=middle;spacingLeft=4;spacingRight=4;overflow=hidden;points=[[0,0.5],[1,0.5]];portConstraint=eastwest;rotatable=0;whiteSpace=wrap;html=1;" vertex="1" parent="xr-b1YEZQtmxwVTNyatM-14">
          <mxGeometry y="95" width="140" height="30" as="geometry" />
        </mxCell>
      </root>
    </mxGraphModel>
  </diagram>
</mxfile>
